<svg xmlns="http://www.w3.org/2000/svg" xmlns:xlink="http://www.w3.org/1999/xlink" width="485.038" height="363.838" version="1.1" viewBox="-2.582 -2.751 485.038 363.838"><defs><linearGradient id="grad_1" x1="27.17" x2="118.17" y1="75.844" y2="75.844" gradientUnits="userSpaceOnUse"><stop offset=".012" stop-color="#A7A9AC"/><stop offset="1" stop-color="#414042"/></linearGradient><linearGradient id="grad_2" x1="30.583" x2="114.756" y1="75.845" y2="75.845" gradientUnits="userSpaceOnUse"><stop offset="0" stop-color="#D1D2D3"/><stop offset="1" stop-color="#A4A5A8"/></linearGradient><linearGradient id="grad_1-.2647576332092285,0,0,6.5462775230407715,-142.65,-267" x1=".393" x2="479.486" y1="229.495" y2="229.495" gradientUnits="userSpaceOnUse"><stop offset=".012" stop-color="#A7A9AC"/><stop offset="1" stop-color="#414042"/></linearGradient><linearGradient id="grad_2-.2647576332092285,0,0,6.5462775230407715,-142.65,-267" x1="18.362" x2="461.512" y1="229.5" y2="229.5" gradientUnits="userSpaceOnUse"><stop offset="0" stop-color="#D1D2D3"/><stop offset="1" stop-color="#A4A5A8"/></linearGradient></defs><g id="ID0.5736659495159984"><path id="ID0.46781618148088455" fill="url(#grad_1-.2647576332092285,0,0,6.5462775230407715,-142.65,-267)" stroke-width="5.94" d="M 479.4864 301.7864 C 479.4864 332.8943 459.196 358.1171 434.1832 358.1171 L 45.6862 358.1171 C 20.668 358.1171 0.3882 332.8878 0.3882 301.7864 L 0.3882 56.5432 C 0.3882 25.4353 20.668 0.219 45.6862 0.219 L 434.1779 0.219 C 459.2066 0.219 479.4811 25.4353 479.4811 56.5432 L 479.4811 301.7864 L 479.4864 301.7864 Z"/><path id="ID0.19793169666081667" fill="url(#grad_2-.2647576332092285,0,0,6.5462775230407715,-142.65,-267)" stroke-width="5.94" d="M 434.1779 22.5615 L 45.6862 22.5615 C 30.6237 22.5615 18.3621 37.8012 18.3621 56.5367 L 18.3621 301.7799 C 18.3621 320.5153 30.6237 335.755 45.6862 335.755 L 434.1779 335.755 C 449.2562 335.755 461.5073 320.5153 461.5073 301.7799 L 461.5073 56.5432 C 461.5073 37.8078 449.2562 22.5615 434.1779 22.5615 Z"/></g><text id="ID0.5765197933651507" fill="#000" stroke-width="1" alignment-baseline="text-before-edge" font-family="Serif" font-size="22" text-anchor="start" transform="matrix(0.992617 0 0 0.922752 80.9852 22.309)" xml:space="preserve"><tspan x="0" dy="1.25em" style="white-space:pre">Game Developed by:</tspan><tspan x="0" dy="1.25em" style="white-space:pre"> </tspan><tspan x="0" dy="1.25em" style="white-space:pre"> Prodyumna Pal</tspan><tspan x="0" dy="1.25em" style="white-space:pre"> Kolkata,India Aged 13+</tspan></text><text id="ID0.1034255912527442" fill="#000" stroke-width="1" alignment-baseline="text-before-edge" font-family="Marker" font-size="22" text-anchor="start" transform="matrix(1 0 0 1 41 114.15)" xml:space="preserve"><tspan x="0" dy="1.45em" style="white-space:pre">Sources:</tspan></text><text id="ID0.16903086844831705" fill="#000" stroke-width="1" alignment-baseline="text-before-edge" font-family="Sans Serif" font-size="22" text-anchor="start" transform="matrix(0.853574 0 0 0.822346 89.7071 153.633)" xml:space="preserve"><tspan x="0" dy="1.13em" style="white-space:pre">Weapons: ZDOOM</tspan><tspan x="0" dy="1.13em" style="white-space:pre"> (discuss topic-38067)</tspan><tspan x="0" dy="1.13em" style="white-space:pre">Terrorists:</tspan><tspan x="0" dy="1.13em" style="white-space:pre"> gamebanana.com</tspan><tspan x="0" dy="1.13em" style="white-space:pre"> PNG EGG</tspan><tspan x="0" dy="1.13em" style="white-space:pre"> NEXTPNG</tspan><tspan x="0" dy="1.13em" style="white-space:pre">Rest: Scratch &amp; Google</tspan></text><text id="ID0.6094704293645918" fill="#000" stroke-width="1" alignment-baseline="text-before-edge" font-family="Sans Serif" font-size="22" text-anchor="start" transform="matrix(0.618718 0 0 0.618718 348.237 318.294)" xml:space="preserve"><tspan x="0" dy="1.13em" style="white-space:pre">Click to Esc</tspan></text></svg>