<svg xmlns="http://www.w3.org/2000/svg" xmlns:xlink="http://www.w3.org/1999/xlink" version="1.1" width="485.0383527542972" height="363.8382795121097" viewBox="-2.581888837904901 -2.7510888410520264 485.0383527542972 363.8382795121097">
  <defs>
    <linearGradient id="grad_1" x1="27.1699" y1="75.8438" x2="118.1699" y2="75.8438" gradientUnits="userSpaceOnUse">
      <stop offset="0.012" stop-color="#A7A9AC"/>
      <stop offset="1" stop-color="#414042"/>
    </linearGradient>
    <linearGradient id="grad_2" x1="30.583" y1="75.8447" x2="114.7559" y2="75.8447" gradientUnits="userSpaceOnUse">
      <stop offset="0" stop-color="#D1D2D3"/>
      <stop offset="1" stop-color="#A4A5A8"/>
    </linearGradient>
  <linearGradient id="grad_1-.2647576332092285,0,0,6.5462775230407715,-142.65,-267" x1="0.3929" y1="229.4946" x2="479.4859" y2="229.4946" gradientUnits="userSpaceOnUse">
      <stop offset="0.012" stop-color="#A7A9AC"/>
      <stop offset="1" stop-color="#414042"/>
    </linearGradient><linearGradient id="grad_2-.2647576332092285,0,0,6.5462775230407715,-142.65,-267" x1="18.3621" y1="229.5005" x2="461.512" y2="229.5005" gradientUnits="userSpaceOnUse">
      <stop offset="0" stop-color="#D1D2D3"/>
      <stop offset="1" stop-color="#A4A5A8"/>
    </linearGradient></defs>
  <!-- Exported by Scratch - http://scratch.mit.edu/ -->
  <g id="ID0.5736659495159984">
    <path id="ID0.46781618148088455" fill="url(#grad_1-.2647576332092285,0,0,6.5462775230407715,-142.65,-267)" d="M 479.4864 301.7864 C 479.4864 332.8943 459.196 358.1171 434.1832 358.1171 L 45.6862 358.1171 C 20.668 358.1171 0.3882 332.8878 0.3882 301.7864 L 0.3882 56.5432 C 0.3882 25.4353 20.668 0.219 45.6862 0.219 L 434.1779 0.219 C 459.2066 0.219 479.4811 25.4353 479.4811 56.5432 L 479.4811 301.7864 L 479.4864 301.7864 Z " stroke-width="5.940177705469074"/>
    <path id="ID0.19793169666081667" fill="url(#grad_2-.2647576332092285,0,0,6.5462775230407715,-142.65,-267)" d="M 434.1779 22.5615 L 45.6862 22.5615 C 30.6237 22.5615 18.3621 37.8012 18.3621 56.5367 L 18.3621 301.7799 C 18.3621 320.5153 30.6237 335.755 45.6862 335.755 L 434.1779 335.755 C 449.2562 335.755 461.5073 320.5153 461.5073 301.7799 L 461.5073 56.5432 C 461.5073 37.8078 449.2562 22.5615 434.1779 22.5615 Z " stroke-width="5.940177705469074"/>
  </g>
  <text id="ID0.5765197933651507" fill="#000000" text-anchor="start" font-family="Serif" font-size="22" transform="matrix(0.992617 0 0 0.922752 80.9852 22.309)" stroke-width="1" alignment-baseline="text-before-edge" xml:space="preserve"><tspan x="0" style="white-space: pre" dy="1.25em">Game Developed by:</tspan><tspan x="0" style="white-space: pre" dy="1.25em"> </tspan><tspan x="0" style="white-space: pre" dy="1.25em">  Prodyumna Pal</tspan><tspan x="0" style="white-space: pre" dy="1.25em">       Kolkata,India     Aged 13+</tspan></text>
  <text id="ID0.1034255912527442" fill="#000000" text-anchor="start" font-family="Marker" font-size="22" transform="matrix(1 0 0 1 41 114.15)" stroke-width="1" alignment-baseline="text-before-edge" xml:space="preserve"><tspan x="0" style="white-space: pre" dy="1.45em">Sources:</tspan></text>
  <text id="ID0.16903086844831705" fill="#000000" text-anchor="start" font-family="Sans Serif" font-size="22" transform="matrix(0.853574 0 0 0.822346 89.7071 153.633)" stroke-width="1" alignment-baseline="text-before-edge" xml:space="preserve"><tspan x="0" style="white-space: pre" dy="1.13em">Weapons:  ZDOOM</tspan><tspan x="0" style="white-space: pre" dy="1.13em">         (discuss topic-38067)</tspan><tspan x="0" style="white-space: pre" dy="1.13em">Terrorists:</tspan><tspan x="0" style="white-space: pre" dy="1.13em">    gamebanana.com</tspan><tspan x="0" style="white-space: pre" dy="1.13em">     PNG EGG</tspan><tspan x="0" style="white-space: pre" dy="1.13em">     NEXTPNG</tspan><tspan x="0" style="white-space: pre" dy="1.13em">Rest: Scratch &amp; Google</tspan></text>
  <text id="ID0.6094704293645918" fill="#000000" text-anchor="start" font-family="Sans Serif" font-size="22" transform="matrix(0.618718 0 0 0.618718 348.237 318.294)" stroke-width="1" alignment-baseline="text-before-edge" xml:space="preserve"><tspan x="0" style="white-space: pre" dy="1.13em">Click to Esc</tspan></text>
</svg>