<svg xmlns="http://www.w3.org/2000/svg" xmlns:xlink="http://www.w3.org/1999/xlink" id="Layer_1" width="92.001" height="55.672" x="0" y="0" enable-background="new 0 0 144 144" version="1.1" viewBox="26.669 40.32 92.001 55.672" xml:space="preserve"><g><linearGradient id="SVGID_1_" x1="27.17" x2="118.17" y1="75.844" y2="75.844" gradientTransform="matrix(1 0 0 -1 0 144)" gradientUnits="userSpaceOnUse"><stop offset=".012" style="stop-color:#a7a9ac"/><stop offset="1" style="stop-color:#414042"/></linearGradient><path fill="url(#SVGID_1_)" stroke-width="1" d="M118.17,86.887c0,4.752-3.854,8.605-8.605,8.605H35.773c-4.752,0-8.604-3.854-8.604-8.605V49.424	c0-4.752,3.852-8.604,8.604-8.604h73.791c4.754,0,8.605,3.852,8.605,8.604V86.887L118.17,86.887z"/><linearGradient id="SVGID_2_" x1="30.583" x2="114.756" y1="75.845" y2="75.845" gradientTransform="matrix(1 0 0 -1 0 144)" gradientUnits="userSpaceOnUse"><stop offset="0" style="stop-color:#d1d2d3"/><stop offset="1" style="stop-color:#a4a5a8"/></linearGradient><path fill="url(#SVGID_2_)" stroke-width="1" d="M109.564,44.233H35.773c-2.861,0-5.19,2.328-5.19,5.19v37.463c0,2.862,2.329,5.19,5.19,5.19h73.791	c2.864,0,5.191-2.328,5.191-5.19V49.424C114.755,46.562,112.428,44.233,109.564,44.233z"/></g></svg>