<svg xmlns="http://www.w3.org/2000/svg" xmlns:xlink="http://www.w3.org/1999/xlink" width="142.821" height="69.977" version="1.1" viewBox="0.113 -0.513 142.821 69.977"><defs><linearGradient id="grad_1" x1="27.17" x2="118.17" y1="75.844" y2="75.844" gradientUnits="userSpaceOnUse"><stop offset=".012" stop-color="#66B3E3"/><stop offset="1" stop-color="#1C75BC"/></linearGradient><linearGradient id="grad_1-.5539305210113525,0,0,1.2541133165359497,-41.4,-51" x1=".82" x2="142.228" y1="44.117" y2="44.117" gradientUnits="userSpaceOnUse"><stop offset=".012" stop-color="#66B3E3"/><stop offset="1" stop-color="#1C75BC"/></linearGradient></defs><g id="ID0.0633557173423469"><path id="ID0.14731504255905747" fill="url(#grad_1-.5539305210113525,0,0,1.2541133165359497,-41.4,-51)" stroke-width="1.412" d="M 142.228 57.9661 C 142.228 63.9257 136.2391 68.7578 128.8564 68.7578 L 14.1888 68.7578 C 6.8045 68.7578 0.8187 63.9244 0.8187 57.9661 L 0.8187 10.9833 C 0.8187 5.0238 6.8045 0.1929 14.1888 0.1929 L 128.8548 0.1929 C 136.2422 0.1929 142.2264 5.0238 142.2264 10.9833 L 142.2264 57.9661 L 142.228 57.9661 Z"/><path id="ID0.5770861473865807" fill="#27AAE1" stroke-width="1.412" d="M 128.8548 4.4732 L 14.1888 4.4732 C 9.743 4.4732 6.1239 7.3928 6.1239 10.982 L 6.1239 57.9649 C 6.1239 61.5542 9.743 64.4737 14.1888 64.4737 L 128.8548 64.4737 C 133.3053 64.4737 136.9213 61.5542 136.9213 57.9649 L 136.9213 10.9833 C 136.9213 7.394 133.3053 4.4732 128.8548 4.4732 Z"/></g><text id="ID0.6551608173176646" fill="#000" stroke-width="1" alignment-baseline="text-before-edge" font-family="Serif" font-size="22" text-anchor="start" transform="matrix(1.55799 0 0 1.55799 12.116 4.36803)" xml:space="preserve"><tspan x="0" dy="1.25em" style="white-space:pre">START</tspan></text></svg>