<svg xmlns="http://www.w3.org/2000/svg" xmlns:xlink="http://www.w3.org/1999/xlink" version="1.1" width="142.8213039311188" height="69.9768978031891" viewBox="0.11269892889174282 -0.5131010846504325 142.8213039311188 69.9768978031891">
  <defs>
    <linearGradient id="grad_1" x1="27.1699" y1="75.8438" x2="118.1699" y2="75.8438" gradientUnits="userSpaceOnUse">
      <stop offset="0.012" stop-color="#66B3E3"/>
      <stop offset="1" stop-color="#1C75BC"/>
    </linearGradient>
  <linearGradient id="grad_1-.5539305210113525,0,0,1.2541133165359497,-41.4,-51" x1="0.8201" y1="44.1167" x2="142.2278" y2="44.1167" gradientUnits="userSpaceOnUse">
      <stop offset="0.012" stop-color="#66B3E3"/>
      <stop offset="1" stop-color="#1C75BC"/>
    </linearGradient></defs>
  <!-- Exported by Scratch - http://scratch.mit.edu/ -->
  <g id="ID0.0633557173423469">
    <path id="ID0.14731504255905747" fill="url(#grad_1-.5539305210113525,0,0,1.2541133165359497,-41.4,-51)" d="M 142.228 57.9661 C 142.228 63.9257 136.2391 68.7578 128.8564 68.7578 L 14.1888 68.7578 C 6.8045 68.7578 0.8187 63.9244 0.8187 57.9661 L 0.8187 10.9833 C 0.8187 5.0238 6.8045 0.1929 14.1888 0.1929 L 128.8548 0.1929 C 136.2422 0.1929 142.2264 5.0238 142.2264 10.9833 L 142.2264 57.9661 L 142.228 57.9661 Z " stroke-width="1.412002173306297"/>
    <path id="ID0.5770861473865807" fill="#27AAE1" d="M 128.8548 4.4732 L 14.1888 4.4732 C 9.743 4.4732 6.1239 7.3928 6.1239 10.982 L 6.1239 57.9649 C 6.1239 61.5542 9.743 64.4737 14.1888 64.4737 L 128.8548 64.4737 C 133.3053 64.4737 136.9213 61.5542 136.9213 57.9649 L 136.9213 10.9833 C 136.9213 7.394 133.3053 4.4732 128.8548 4.4732 Z " stroke-width="1.412002173306297"/>
  </g>
  <text id="ID0.6551608173176646" fill="#000000" text-anchor="start" font-family="Serif" font-size="22" transform="matrix(1.55799 0 0 1.55799 12.116 4.36803)" stroke-width="1" alignment-baseline="text-before-edge" xml:space="preserve"><tspan x="0" style="white-space: pre" dy="1.25em">START</tspan></text>
</svg>