<svg xmlns="http://www.w3.org/2000/svg" xmlns:xlink="http://www.w3.org/1999/xlink" version="1.1" width="121" height="53.288002014160156" viewBox="-0.4519999958574772 0.28700000047683716 121 53.288002014160156">
  <defs>
    <linearGradient id="grad_1" x1="13.0479" y1="75.0693" x2="133.0479" y2="75.0693" gradientUnits="userSpaceOnUse">
      <stop offset="0" stop-color="#FBB040"/>
      <stop offset="1" stop-color="#F15A29"/>
    </linearGradient>
    <linearGradient id="grad_2" x1="17.5508" y1="75.0703" x2="128.5439" y2="75.0703" gradientUnits="userSpaceOnUse">
      <stop offset="0" stop-color="#ED7340"/>
      <stop offset="0.5181" stop-color="#F4AA46"/>
      <stop offset="1" stop-color="#F29746"/>
    </linearGradient>
  <linearGradient id="grad_1-,0,0,1,-13,-42" x1="0.0479" y1="33.0693" x2="120.0479" y2="33.0693" gradientUnits="userSpaceOnUse">
      <stop offset="0" stop-color="#FBB040"/>
      <stop offset="1" stop-color="#F15A29"/>
    </linearGradient><linearGradient id="grad_2-,0,0,1,-13,-42" x1="4.5508" y1="33.0703" x2="115.5439" y2="33.0703" gradientUnits="userSpaceOnUse">
      <stop offset="0" stop-color="#ED7340"/>
      <stop offset="0.5181" stop-color="#F4AA46"/>
      <stop offset="1" stop-color="#F29746"/>
    </linearGradient></defs>
  <!-- Exported by Scratch - http://scratch.mit.edu/ -->
  <g id="ID0.9417829858139157">
    <path id="ID0.9873758242465556" fill="url(#grad_1-,0,0,1,-13,-42)" d="M 93.902 0.787 L 26.191 0.787 C 11.775 0.787 0.048 12.515 0.048 26.931 C 0.048 41.347 11.776 53.075 26.191 53.075 L 93.902 53.075 C 108.318 53.075 120.048 41.346 120.048 26.931 C 120.047 12.514 108.318 0.787 93.902 0.787 Z " stroke-width="1"/>
    <path id="ID0.191409130115062" fill="url(#grad_2-,0,0,1,-13,-42)" d="M 115.544 26.929 C 115.544 38.882 105.855 48.57 93.902 48.57 L 26.191 48.57 C 14.239 48.57 4.551 38.882 4.551 26.929 L 4.551 26.929 C 4.551 14.978 14.239 5.289 26.191 5.289 L 93.902 5.289 C 105.854 5.289 115.544 14.978 115.544 26.929 L 115.544 26.929 Z " stroke-width="1"/>
  </g>
  <text id="ID0.8780128164216876" fill="#000000" text-anchor="start" font-family="Sans Serif" font-size="22" transform="matrix(1 0 0 1 11 9.05)" stroke-width="1" alignment-baseline="text-before-edge" xml:space="preserve"><tspan x="0" style="white-space: pre" dy="1.13em">ARMORY</tspan></text>
</svg>