<svg xmlns="http://www.w3.org/2000/svg" xmlns:xlink="http://www.w3.org/1999/xlink" width="121" height="53.287" version="1.1" viewBox="-0.482 0.287 121 53.287"><defs><linearGradient id="grad_1" x1="13.018" x2="133.018" y1="75.069" y2="75.069" gradientUnits="userSpaceOnUse"><stop offset="0" stop-color="#27AAE1"/><stop offset="1" stop-color="#115489"/></linearGradient><linearGradient id="grad_2" x1="17.52" x2="128.514" y1="75.069" y2="75.069" gradientUnits="userSpaceOnUse"><stop offset="0" stop-color="#2F7EBA"/><stop offset=".506" stop-color="#3F9DD6"/><stop offset="1" stop-color="#3E97D1"/></linearGradient><linearGradient id="grad_1-,0,0,1,-13,-42" x1=".018" x2="120.018" y1="33.069" y2="33.069" gradientUnits="userSpaceOnUse"><stop offset="0" stop-color="#27AAE1"/><stop offset="1" stop-color="#115489"/></linearGradient><linearGradient id="grad_2-,0,0,1,-13,-42" x1="4.521" x2="115.514" y1="33.069" y2="33.069" gradientUnits="userSpaceOnUse"><stop offset="0" stop-color="#2F7EBA"/><stop offset=".506" stop-color="#3F9DD6"/><stop offset="1" stop-color="#3E97D1"/></linearGradient></defs><g id="ID0.3669919869862497"><path id="ID0.5594889740459621" fill="url(#grad_1-,0,0,1,-13,-42)" stroke-width="1" d="M 93.874 0.787 L 26.161 0.787 C 11.745 0.787 0.018 12.515 0.018 26.93 C 0.018 41.347 11.746 53.074 26.161 53.074 L 93.874 53.074 C 108.289 53.074 120.018 41.346 120.018 26.93 C 120.018 12.515 108.289 0.787 93.874 0.787 Z"/><path id="ID0.45258425269275904" fill="url(#grad_2-,0,0,1,-13,-42)" stroke-width="1" d="M 115.514 26.93 C 115.514 38.882 105.826 48.571 93.874 48.571 L 26.161 48.571 C 14.209 48.571 4.52 38.882 4.52 26.93 L 4.52 26.93 C 4.52 14.979 14.209 5.29 26.161 5.29 L 93.874 5.29 C 105.826 5.29 115.514 14.979 115.514 26.93 L 115.514 26.93 Z"/></g><text id="ID0.4261719021014869" fill="#000" stroke-width="1" alignment-baseline="text-before-edge" font-family="Sans Serif" font-size="22" text-anchor="start" transform="matrix(1 0 0 1 10 11.05)" xml:space="preserve"><tspan x="0" dy="1.13em" style="white-space:pre">CREDITS</tspan></text></svg>