<svg xmlns="http://www.w3.org/2000/svg" xmlns:xlink="http://www.w3.org/1999/xlink" width="477.314" height="362.719" version="1.1" viewBox="-2.1 -2.776 477.314 362.719"><defs><linearGradient id="grad_1" x1="27.17" x2="118.17" y1="75.844" y2="75.844" gradientUnits="userSpaceOnUse"><stop offset=".012" stop-color="#A7A9AC"/><stop offset="1" stop-color="#414042"/></linearGradient><linearGradient id="grad_2" x1="30.583" x2="114.756" y1="75.845" y2="75.845" gradientUnits="userSpaceOnUse"><stop offset="0" stop-color="#D1D2D3"/><stop offset="1" stop-color="#A4A5A8"/></linearGradient><linearGradient id="grad_1-.180408000946045,0,0,6.5266923904418945,-139.9,-266.25" x1=".851" x2="472.268" y1="228.759" y2="228.759" gradientUnits="userSpaceOnUse"><stop offset=".012" stop-color="#A7A9AC"/><stop offset="1" stop-color="#414042"/></linearGradient><linearGradient id="grad_2-.180408000946045,0,0,6.5266923904418945,-139.9,-266.25" x1="18.532" x2="454.582" y1="228.765" y2="228.765" gradientUnits="userSpaceOnUse"><stop offset="0" stop-color="#D1D2D3"/><stop offset="1" stop-color="#A4A5A8"/></linearGradient></defs><g id="ID0.011184659786522388"><path id="ID0.4958239388652146" fill="url(#grad_1-.180408000946045,0,0,6.5266923904418945,-139.9,-266.25)" stroke-width="5.892" d="M 472.2688 300.8347 C 472.2688 331.8496 452.3035 356.9969 427.6914 356.9969 L 45.4187 356.9969 C 20.8014 356.9969 0.8465 331.843 0.8465 300.8347 L 0.8465 56.3252 C 0.8465 25.3104 20.8014 0.1696 45.4187 0.1696 L 427.6862 0.1696 C 452.3139 0.1696 472.2636 25.3104 472.2636 56.3252 L 472.2636 300.8347 L 472.2688 300.8347 Z"/><path id="ID0.9057768937200308" fill="url(#grad_2-.180408000946045,0,0,6.5266923904418945,-139.9,-266.25)" stroke-width="5.892" d="M 427.6862 22.4452 L 45.4187 22.4452 C 30.5976 22.4452 18.5324 37.6393 18.5324 56.3187 L 18.5324 300.8282 C 18.5324 319.5076 30.5976 334.7017 45.4187 334.7017 L 427.6862 334.7017 C 442.5229 334.7017 454.5777 319.5076 454.5777 300.8282 L 454.5777 56.3252 C 454.5777 37.6459 442.5229 22.4452 427.6862 22.4452 Z"/></g><text id="ID0.9132088287733495" fill="#000" stroke-width="1" alignment-baseline="text-before-edge" font-family="Sans Serif" font-size="22" text-anchor="start" transform="matrix(1 0 0 1 66 40.15)" xml:space="preserve"><tspan x="0" dy="1.13em" style="white-space:pre">Target with ur mouse and shoot</tspan><tspan x="0" dy="1.13em" style="white-space:pre">by pressing &lt;SPACE&gt;</tspan></text><text id="ID0.34175445791333914" fill="#000" stroke-width="1" alignment-baseline="text-before-edge" font-family="Sans Serif" font-size="22" text-anchor="start" transform="matrix(1 0 0 1 77 114.15)" xml:space="preserve"><tspan x="0" dy="1.13em" style="white-space:pre">Shoot as many as u can before </tspan><tspan x="0" dy="1.13em" style="white-space:pre">u are exhausted enough</tspan></text><text id="ID0.7791593526490033" fill="#03C" stroke-width="1" alignment-baseline="text-before-edge" font-family="Handwriting" font-size="22" text-anchor="start" transform="matrix(2.07409 0 0 1.87651 81.1482 154.558)" xml:space="preserve"><tspan x="0" dy="2em" style="white-space:pre">COME ON !!!</tspan><tspan x="0" dy="2em" style="white-space:pre"> Shoot &apos;Em Up</tspan></text><text id="ID0.18098714342340827" fill="#000" stroke-width="1" alignment-baseline="text-before-edge" font-family="Serif" font-size="22" text-anchor="start" transform="matrix(0.586645 0 0 0.586645 352.173 316.753)" xml:space="preserve"><tspan x="0" dy="1.25em" style="white-space:pre">Click to Esc</tspan></text></svg>